<?xml version="1.0" encoding="utf-8"?>
<!-- Generator: Adobe Illustrator 17.0.0, SVG Export Plug-In . SVG Version: 6.00 Build 0)  -->
<!DOCTYPE svg PUBLIC "-//W3C//DTD SVG 1.1//EN" "http://www.w3.org/Graphics/SVG/1.1/DTD/svg11.dtd">
<svg version="1.1" id="Layer_1" xmlns="http://www.w3.org/2000/svg" xmlns:xlink="http://www.w3.org/1999/xlink" x="0px" y="0px"
	 width="70px" height="70px" viewBox="0 0 500 500" enable-background="new 0 0 500 500" xml:space="preserve">
<ellipse fill="none" stroke="#08826A" stroke-width="8" stroke-miterlimit="10" cx="250" cy="250" rx="241.919" ry="241.999"/>
<path fill="#08826A" stroke="#08826A" stroke-width="8" stroke-miterlimit="10" d="M272.226,375.822
	c-16.966,2.731-33.17,2.798-49.912-0.003c0-36.92,0-73.647,0-110.88c-13.608,0-26.684,0-40.064,0c0-15.431,0-30.358,0-45.972
	c13.039,0,26.238,0,39.957,0c0-10.961-0.26-21.255,0.087-31.529c0.252-7.462,0.572-15.057,2.138-22.316
	c5.523-25.595,24.47-41.609,51.936-42.879c13.687-0.633,27.484,1.101,41.382,1.772c0,13.985,0,26.737,0,40.043
	c-6.346,0-12.478-0.285-18.568,0.093c-4.601,0.286-9.365,0.802-13.676,2.307c-8.245,2.878-12.511,9.681-13.005,17.958
	c-0.67,11.244-0.167,22.558-0.167,34.369c14.543,0,28.955,0,43.825,0c-2.412,15.653-4.733,30.718-7.091,46.024
	c-12.408,0-24.374,0-36.842,0C272.226,301.851,272.226,338.584,272.226,375.822z"/>
</svg>
