<?xml version="1.0" encoding="utf-8"?>
<!-- Generator: Adobe Illustrator 17.0.0, SVG Export Plug-In . SVG Version: 6.00 Build 0)  -->
<!DOCTYPE svg PUBLIC "-//W3C//DTD SVG 1.1//EN" "http://www.w3.org/Graphics/SVG/1.1/DTD/svg11.dtd">
<svg version="1.1" id="Layer_1" xmlns="http://www.w3.org/2000/svg" xmlns:xlink="http://www.w3.org/1999/xlink" x="0px" y="0px"
	 width="500px" height="500px" viewBox="0 0 500 500" enable-background="new 0 0 500 500" xml:space="preserve">
<ellipse fill="none" stroke="#08826A" stroke-width="8" stroke-miterlimit="10" cx="249" cy="250" rx="241.919" ry="241.999"/>
<g>
	<path fill="#08826A" stroke="#08826A" stroke-width="8" stroke-miterlimit="10" d="M249.048,367.007
		c-18.828,0-37.832,1.635-56.447-0.356c-33.946-3.63-60.406-33.253-61.231-67.565c-0.786-32.671-0.852-65.394,0.019-98.061
		c0.985-36.945,31.537-67.498,68.482-68.483c32.667-0.871,65.392-0.848,98.06-0.013c36.95,0.945,67.581,31.385,68.615,68.346
		c0.919,32.864,0.945,65.797-0.013,98.659c-1.085,37.19-32.015,67.121-69.351,68.317c-16.028,0.514-32.086,0.086-48.13,0.086
		C249.05,367.627,249.049,367.317,249.048,367.007z M347.781,250.637c0-15.038,0.077-30.077-0.016-45.115
		c-0.191-31.03-23.035-54.041-53.919-54.169c-29.876-0.124-59.753-0.118-89.628-0.002c-30.932,0.12-53.904,23.11-54.021,54.059
		c-0.113,29.876-0.123,59.753,0.003,89.629c0.129,30.613,23.067,53.693,53.605,53.859c30.076,0.163,60.154,0.157,90.23,0.003
		c30.592-0.156,53.49-23.143,53.726-53.75C347.875,280.314,347.781,265.475,347.781,250.637z"/>
	<path fill="#08826A" stroke="#08826A" stroke-width="8" stroke-miterlimit="10" d="M249.562,188.809
		c33.904-0.096,61.769,27.519,61.906,61.349c0.138,34.151-27.792,62.183-61.832,62.059c-33.928-0.123-61.588-27.808-61.648-61.703
		C187.929,216.7,215.666,188.905,249.562,188.809z M250.051,207.894c-23.723-0.135-43.044,18.905-43.135,42.51
		c-0.09,23.201,19.03,42.543,42.337,42.83c23.432,0.289,43.042-19.121,43.086-42.646
		C292.383,227.181,273.411,208.027,250.051,207.894z"/>
	<path fill="#08826A" stroke="#08826A" stroke-width="none" stroke-miterlimit="10" d="M298.352,187.048
		c-0.076-7.592,6.011-13.811,13.54-13.835c7.413-0.023,13.79,6.402,13.697,13.8c-0.091,7.186-6.191,13.373-13.366,13.556
		C304.763,200.76,298.427,194.584,298.352,187.048z"/>
</g>
</svg>
