<?xml version="1.0" encoding="utf-8"?>
<!-- Generator: Adobe Illustrator 17.0.0, SVG Export Plug-In . SVG Version: 6.00 Build 0)  -->
<!DOCTYPE svg PUBLIC "-//W3C//DTD SVG 1.1//EN" "http://www.w3.org/Graphics/SVG/1.1/DTD/svg11.dtd">
<svg version="1.1" id="Layer_1" xmlns="http://www.w3.org/2000/svg" xmlns:xlink="http://www.w3.org/1999/xlink" x="0px" y="0px"
	 width="500px" height="500px" viewBox="0 0 500 500" enable-background="new 0 0 500 500" xml:space="preserve">
<ellipse fill="none" stroke="#08826A" stroke-width="8" stroke-miterlimit="10" cx="250" cy="250" rx="241.919" ry="241.999"/>
<g>
	<path fill="#08826A" stroke="#08826A" stroke-width="0" stroke-miterlimit="10" d="M236.117,201.394c10.791,0,21.281,0,32.455,0
		c0,5.086,0,9.877,0,14.986c1.498-0.232,2.581-0.063,3.017-0.516c14.953-15.538,33.451-16.486,52.794-12.242
		c16.053,3.522,25.475,15.19,26.191,30.54c1.4,30.036,0.411,60.184,0.411,90.924c-11.267,0-22.903,0-35.591,0
		c-0.163-3.405-0.416-6.727-0.467-10.052c-0.323-20.994-0.083-42.014-1.079-62.975c-0.659-13.866-8.952-19.999-22.521-18.67
		c-10.141,0.994-16.608,7.381-17.337,19.141c-0.924,14.911-0.824,29.889-1.043,44.84c-0.13,8.893-0.024,17.789-0.024,27.515
		c-12.45,0-24.292,0-36.807,0C236.117,283.79,236.117,242.843,236.117,201.394z"/>
	<path fill="#08826A" stroke="#08826A" stroke-width="0" stroke-miterlimit="10" d="M209.716,201.513c0,41.25,0,81.969,0,124.081
		c-13.874,0-27.517,0.151-41.145-0.237c-1.345-0.038-3.715-3.375-3.725-5.191c-0.216-39.345-0.165-78.692-0.165-118.653
		C179.779,201.513,194.287,201.513,209.716,201.513z"/>
	<path fill="#08826A" stroke="#08826A" stroke-width="0" stroke-miterlimit="10" d="M210.027,161.559
		c0.175,11.749-9.257,21.553-20.997,21.825c-11.816,0.274-21.632-8.99-21.997-20.759c-0.379-12.219,9.203-22.198,21.361-22.247
		C200.188,140.33,209.852,149.792,210.027,161.559z"/>
</g>
</svg>
