<?xml version="1.0" encoding="utf-8"?>
<!-- Generator: Adobe Illustrator 17.0.0, SVG Export Plug-In . SVG Version: 6.00 Build 0)  -->
<!DOCTYPE svg PUBLIC "-//W3C//DTD SVG 1.1//EN" "http://www.w3.org/Graphics/SVG/1.1/DTD/svg11.dtd">
<svg version="1.1" id="Layer_1" xmlns="http://www.w3.org/2000/svg" xmlns:xlink="http://www.w3.org/1999/xlink" x="0px" y="0px"
	 width="500px" height="500px" viewBox="0 0 500 500" enable-background="new 0 0 500 500" xml:space="preserve">
<ellipse fill="none" stroke="#08826A" stroke-width="8" stroke-miterlimit="10" cx="250" cy="250" rx="241.919" ry="241.999"/>
<path fill="#08826A" stroke="#08826A" stroke-width="0" stroke-miterlimit="10" d="M123.744,331.358
	c27.149,1.261,51.74-5.355,74.449-22.386c-23.769-2.776-39.867-14.262-48.427-36.652c7.535,0,14.288,0,21.041,0
	c0.209-0.377,0.418-0.754,0.627-1.131c-24.809-8.23-38.436-24.982-40.289-51.132c7.331,2.022,14.283,3.939,21.236,5.856
	c0.258-0.508,0.516-1.016,0.773-1.524c-11.949-9.458-19.239-21.586-20.925-36.654c-1.232-11.011,0.657-21.55,6.663-31.938
	c28.45,33.1,64.071,51.568,108.076,54.568c-1.613-10.345-1.494-19.841,1.846-29.146c12.745-35.502,56.584-46.794,84.651-21.659
	c2.401,2.15,4.515,3.053,7.549,1.884c8.047-3.098,16.13-6.1,24.193-9.156c1.169-0.443,2.303-0.976,4.358-1.853
	c-3.836,11.835-10.954,20.041-20.015,26.843c0.185,0.483,0.371,0.967,0.556,1.45c8.443-2.284,16.886-4.568,26.149-7.074
	c-1.668,2.279-2.97,4.432-4.634,6.255c-4.15,4.547-7.927,9.697-12.849,13.211c-6.242,4.457-7.763,9.588-7.961,17.054
	c-1.672,62.952-44.048,126.817-114.708,142.053C196.301,358.811,158.753,352.826,123.744,331.358z"/>
</svg>
