<?xml version="1.0" encoding="utf-8"?>
<!-- Generator: Adobe Illustrator 17.0.0, SVG Export Plug-In . SVG Version: 6.00 Build 0)  -->
<!DOCTYPE svg PUBLIC "-//W3C//DTD SVG 1.1//EN" "http://www.w3.org/Graphics/SVG/1.1/DTD/svg11.dtd">
<svg version="1.1" id="Layer_1" xmlns="http://www.w3.org/2000/svg" xmlns:xlink="http://www.w3.org/1999/xlink" x="0px" y="0px"
	 width="500px" height="500px" viewBox="0 0 500 500" enable-background="new 0 0 500 500" xml:space="preserve">
<g>
	<path fill="#08826A" d="M334.659,317.981h-16.13l0.079-9.363c0-4.165,3.415-7.563,7.595-7.563h1.034
		c4.181,0,7.611,3.399,7.611,7.563L334.659,317.981z M274.187,297.915c-4.078,0-7.425,2.751-7.425,6.115v45.535
		c0,3.363,3.348,6.099,7.425,6.099c4.109,0,7.457-2.736,7.457-6.099v-45.539C281.643,300.667,278.296,297.915,274.187,297.915z
		 M372.375,272.449v86.618c0,20.78-18.016,37.779-40.048,37.779H167.673c-22.036,0-40.048-17.002-40.048-37.779v-86.618
		c0-20.78,18.013-37.786,40.048-37.786h164.658C354.357,234.663,372.375,251.673,372.375,272.449z M178.652,368.475l-0.007-91.244
		l20.409,0.007v-13.524l-54.41-0.083v13.288l16.987,0.052v91.501h17.021V368.475z M239.839,290.826H222.82v48.721
		c0,7.051,0.422,10.575-0.023,11.815c-1.389,3.778-7.611,7.789-10.031,0.41c-0.41-1.294-0.047-5.195-0.055-11.894l-0.079-49.057
		h-16.923l0.063,48.282c0.007,7.402-0.17,12.921,0.055,15.432c0.415,4.429,0.261,9.596,4.378,12.538
		c7.651,5.523,22.327-0.821,25.999-8.705l-0.032,10.058l13.662,0.02v-77.621H239.839z M294.28,346.616l-0.032-40.553
		c-0.016-15.459-11.574-24.716-27.278-12.21l0.071-30.152l-17.002,0.027l-0.083,104.063l13.979-0.206l1.271-6.486
		C283.076,377.507,294.311,366.272,294.28,346.616z M347.548,341.244l-12.767,0.068c0,0.51-0.023,1.09-0.032,1.729v7.121
		c0,3.81-3.146,6.912-6.971,6.912h-2.499c-3.833,0-6.979-3.103-6.979-6.912v-0.789v-7.84v-10.106h29.22v-10.998
		c0-8.033-0.209-16.067-0.872-20.661c-2.088-14.539-22.49-16.844-32.8-9.403c-3.237,2.325-5.704,5.435-7.149,9.621
		c-1.449,4.181-2.167,9.884-2.167,17.141v24.179C304.543,381.498,353.363,375.817,347.548,341.244z M282.09,209.964
		c0.872,2.14,2.235,3.864,4.093,5.175c1.82,1.279,4.165,1.931,6.963,1.931c2.452,0,4.626-0.664,6.514-2.033
		c1.891-1.362,3.486-3.391,4.78-6.106l-0.324,6.679h18.968v-80.673H308.15v62.787c0,3.395-2.806,6.178-6.23,6.178
		c-3.399,0-6.214-2.783-6.214-6.178v-62.787h-15.581v54.41c0,6.932,0.122,11.554,0.331,13.9
		C280.68,205.574,281.213,207.804,282.09,209.964z M224.605,164.401c0-7.745,0.648-13.789,1.926-18.147
		c1.287-4.347,3.616-7.84,6.971-10.469c3.355-2.649,7.651-3.971,12.862-3.971c4.386,0,8.148,0.864,11.294,2.55
		c3.146,1.698,5.589,3.896,7.271,6.616c1.729,2.728,2.89,5.535,3.517,8.404c0.639,2.905,0.947,7.3,0.947,13.209v20.405
		c0,7.484-0.3,12.987-0.88,16.486c-0.573,3.506-1.811,6.754-3.73,9.798c-1.895,3.016-4.342,5.27-7.311,6.707
		c-2.992,1.457-6.414,2.167-10.292,2.167c-4.318,0-7.966-0.596-10.963-1.847c-3.008-1.24-5.337-3.111-6.992-5.594
		c-1.682-2.487-2.854-5.515-3.561-9.044c-0.718-3.533-1.058-8.835-1.058-15.908v-21.361H224.605z M239.456,196.451
		c0,4.563,3.407,8.293,7.548,8.293c4.141,0,7.524-3.726,7.524-8.293v-42.949c0-4.563-3.383-8.293-7.524-8.293
		c-4.141,0-7.548,3.726-7.548,8.293V196.451z M186.957,218.135h17.902l0.016-61.874l21.148-53.005h-19.576l-11.243,39.377
		l-11.405-39.479h-19.367l22.497,53.143L186.957,218.135z"/>
</g>
<circle fill="none" stroke="#08826A" stroke-width="8" stroke-miterlimit="10" cx="250.125" cy="250.125" r="248.875"/>
</svg>
